# xmcd
#
# Track frame offsets: 
#        150
#        13970
#        39660
#        56741
#        73718
#        81608
#        105175
#        131678
#
# Disc length: 2044 seconds
#
# Revision: 0
# Processed by: cddbd v1.5.2PL0 Copyright (c) Steve Scherf et al.
# Submitted via: ExactAudioCopyFreeDBPlugin 1.0
#
DISCID=6f07fa08
DTITLE=Pinot - Pinot '11
DYEAR=2011
DGENRE=Funk
TTITLE0=Get It feat G Curtis
TTITLE1=Cornerstore
TTITLE2=Mr. Rager's Neighborhood
TTITLE3=Gonna Funk You Up feat G Curtis
TTITLE4=Interlude
TTITLE5=Ride
TTITLE6=Push It feat G Curtis
TTITLE7=Workin' Every Day
EXTD=
EXTT0=
EXTT1=
EXTT2=
EXTT3=
EXTT4=
EXTT5=
EXTT6=
EXTT7=
PLAYORDER=
